<?xml version="1.0" encoding="utf-8"?>
<?xml-stylesheet type="text/xsl" href="rss1.xsl"?>
<rss version="2.0" xmlns:atom="http://www.w3.org/2005/Atom" xmlns:content="http://purl.org/rss/1.0/modules/content/" xmlns:dc="http://purl.org/dc/elements/1.1/" xmlns:media="http://search.yahoo.com/mrss/">
<channel>
 <title>Getty</title>
 <link>http://www.gettyimg.com/</link>
 <atom:link href="http://www.gettyimg.com/" rel="self" type="application/rss+xml" />

 
                <item>
                <title><![CDATA[【Requests】[REQ AUD] - Billie Eilish Digital Exclusive "Hit me hard and soft" slowed &amp; reverb and sped up versions]]></title>
                <link><![CDATA[https://sharemania.us/threads/billie-eilish-digital-exclusive-hit-me-hard-and-soft-slowed-reverb-and-sped-up-versions.244964/]]></link>
                <description><![CDATA[<article>
<blockquote class="messageText SelectQuoteContainer ugc baseHtml">
Hello there !<br>
<br>
I'm searching for these two new versions of the album : "slowed and reverb" &amp; "sped up" .<br>
Available only few hours on her website : <a href="https://store.billieeilish.com/" target="_blank" class="externalLink" rel="nofollow">https://store.billieeilish.com/</a><br>
<br>
thank you so much !!
<div class="messageTextEndMarker">&nbsp;</div>
</blockquote>
</article>]]></description>
                <author><![CDATA[tomwin]]></author>
                </item>

                
                <item>
                <title><![CDATA[【HD Live Performances】WEB-RiP - Billie Eilish - Lunch (The Late Show with Stephen Colbert 1080)-fstambuk]]></title>
                <link><![CDATA[https://sharemania.us/threads/billie-eilish-lunch-the-late-show-with-stephen-colbert-1080-fstambuk.244963/]]></link>
                <description><![CDATA[<article>
<blockquote class="messageText SelectQuoteContainer ugc baseHtml">
<div style="text-align: center"><img src="https://i.ibb.co/xSPH40T/Billie-Eilish-Lunch-The-Late-Show-with-Stephen-Colbert-1080-VTM.gif" class="bbCodeImage LbImage" alt="[​IMG]" data-url="https://i.ibb.co/xSPH40T/Billie-Eilish-Lunch-The-Late-Show-with-Stephen-Colbert-1080-VTM.gif" style=""><br>
​</div>
<div class="ToggleTriggerAnchor bbCodeSpoilerContainer">
<button type="button" class="button bbCodeSpoilerButton ToggleTrigger Tooltip JsOnly" data-target="> .SpoilerTarget"><span>Spoiler: <span class="SpoilerTitle">The Late Show with Stephen Colbert</span></span></button>
<div class="SpoilerTarget bbCodeSpoilerText">
<div class="bbCodeBlock bbCodeCode">
<div class="type">Code:</div>
<pre>General
Complete name                            : Billie Eilish - Lunch (The Late Show with Stephen Colbert 1080) .mkv
Format                                   : Matroska
Format version                           : Version 4
File size                                : 111 MiB
Duration                                 : 3 min 39 s
Overall bit rate                         : 4 236 kb/s
Writing application                      : Lavf57.26.100
Writing library                          : Lavf57.26.100

Video
ID                                       : 1
Format                                   : AVC
Format/Info                              : Advanced Video Codec
Format profile                           : High@L4
Format settings                          : CABAC / 4 Ref Frames
Format settings, CABAC                   : Yes
Format settings, Reference frames        : 4 frames
Codec ID                                 : V_MPEG4/ISO/AVC
Duration                                 : 3 min 39 s
Bit rate                                 : 4 024 kb/s
Nominal bit rate                         : 4 500 kb/s
Width                                    : 1 920 pixels
Height                                   : 1 080 pixels
Display aspect ratio                     : 16:9
Frame rate mode                          : Variable
Original frame rate                      : 29.970 FPS
Color space                              : YUV
Chroma subsampling                       : 4:2:0
Bit depth                                : 8 bits
Scan type                                : Progressive
Bits/(Pixel*Frame)                       : 0.072
Stream size                              : 105 MiB (95%)
Writing library                          : x264 core 164 r3107 a8b68eb
Encoding settings                        : cabac=1 / ref=4 / deblock=1:0:0 / analyse=0x3:0x113 / me=hex / subme=8 / psy=1 / psy_rd=1.00:0.00 / mixed_ref=1 / me_range=16 / chroma_me=1 / trellis=2 / 8x8dct=1 / cqm=0 / deadzone=21,11 / fast_pskip=1 / chroma_qp_offset=-2 / threads=12 / lookahead_threads=2 / sliced_threads=0 / nr=0 / decimate=1 / interlaced=0 / bluray_compat=0 / stitchable=1 / constrained_intra=0 / bframes=3 / b_pyramid=2 / b_adapt=1 / b_bias=0 / direct=3 / weightb=1 / open_gop=0 / weightp=2 / keyint=60 / keyint_min=6 / scenecut=0 / intra_refresh=0 / rc_lookahead=50 / rc=2pass / mbtree=1 / bitrate=4500 / ratetol=1.0 / qcomp=0.60 / qpmin=0 / qpmax=69 / qpstep=4 / cplxblur=20.0 / qblur=0.5 / vbv_maxrate=5400 / vbv_bufsize=4500 / nal_hrd=none / filler=0 / ip_ratio=1.40 / aq=1:1.00
Default                                  : Yes
Forced                                   : No
Color range                              : Limited
Color primaries                          : BT.709
Transfer characteristics                 : BT.709
Matrix coefficients                      : BT.709

Audio
ID                                       : 2
Format                                   : E-AC-3
Format/Info                              : Enhanced AC-3
Commercial name                          : Dolby Digital Plus
Codec ID                                 : A_EAC3
Duration                                 : 3 min 39 s
Bit rate mode                            : Constant
Bit rate                                 : 128 kb/s
Channel(s)                               : 2 channels
Channel layout                           : L R
Sampling rate                            : 48.0 kHz
Frame rate                               : 31.250 FPS (1536 SPF)
Compression mode                         : Lossy
Delay relative to video                  : -3 ms
Stream size                              : 3.35 MiB (3%)
Language                                 : English
Service kind                             : Complete Main
Default                                  : Yes
Forced                                   : No
Dialog Normalization                     : -24 dB
compr                                    : 1.94 dB
dialnorm_Average                         : -24 dB
dialnorm_Minimum                         : -24 dB
dialnorm_Maximum                         : -24 dB

</pre>
</div><div style="text-align: center">​</div></div>
</div><div style="text-align: center"><br>
<div class="bbCodeBlock bbCodeVfcHH HiddenContent">
<div class="attribution type">Hidden Content:</div>
<blockquote>You must reply before you can see the hidden data contained here.</blockquote>
</div></div>
<div class="messageTextEndMarker">&nbsp;</div>
</blockquote>
</article>]]></description>
                <author><![CDATA[fstambuk]]></author>
                </item>

                </channel></rss>